<?xml version="1.0" encoding="UTF-8" standalone="no"?>
<svg width="96px" height="64px" viewBox="0 0 96 64" version="1.1" xmlns="http://www.w3.org/2000/svg" xmlns:xlink="http://www.w3.org/1999/xlink" xmlns:sketch="http://www.bohemiancoding.com/sketch/ns">
    <!-- Generator: Sketch 3.5 (25232) - http://www.bohemiancoding.com/sketch -->
    <title>active</title>
    <desc>Created with Sketch.</desc>
    <defs></defs>
    <g id="Page-1" stroke="none" stroke-width="1" fill="none" fill-rule="evenodd" sketch:type="MSPage">
        <g id="active" sketch:type="MSLayerGroup">
            <path d="M64,0 L32,0 C14.33,0 0,14.33 0,32 C0,49.67 14.33,64 32,64 L64,64 C81.67,64 96,49.67 96,32 C96,14.33 81.67,0 64,0 L64,0 Z" id="track" fill="#86D993" sketch:type="MSShapeGroup"></path>
            <path d="M31.5,6 C17.417625,6 6,17.417625 6,31.5 C6,45.582375 17.417625,57 31.5,57 C45.582375,57 57,45.582375 57,31.5 C57,17.417625 45.582375,6 31.5,6 L31.5,6 Z" id="switch" fill="#FFFFFF" sketch:type="MSShapeGroup"></path>
        </g>
    </g>
</svg>