<?xml version="1.0" encoding="UTF-8" standalone="no"?>
<svg width="510px" height="510px" viewBox="0 0 510 510" version="1.1" xmlns="http://www.w3.org/2000/svg" xmlns:xlink="http://www.w3.org/1999/xlink" xmlns:sketch="http://www.bohemiancoding.com/sketch/ns">
    <!-- Generator: Sketch 3.3.3 (12081) - http://www.bohemiancoding.com/sketch -->
    <title>1443811589_network-server</title>
    <desc>Created with Sketch.</desc>
    <defs></defs>
    <g id="Page-1" stroke="none" stroke-width="1" fill="none" fill-rule="evenodd" sketch:type="MSPage">
        <g id="1443811589_network-server" sketch:type="MSLayerGroup" transform="translate(5.000000, 5.000000)">
            <g id="network-server" sketch:type="MSShapeGroup">
                <g id="Group">
                    <circle id="Oval" stroke="#333333" stroke-width="10" cx="250" cy="250" r="250"></circle>
                    <g id="_x33_3" transform="translate(111.000000, 126.000000)">
                        <g id="Group" transform="translate(19.000000, 0.000000)" fill="#333333">
                            <path d="M209.0232,0.265851852 L30.9828,0.265851852 C14.4468,0.265851852 1.0476,13.6434691 1.0476,30.1322716 C1.0476,46.6342469 14.4468,60.0118642 30.9828,60.0118642 L209.0232,60.0118642 C225.552,60.0118642 238.9644,46.6342469 238.9644,30.1322716 C238.9656,13.6434691 225.5532,0.265851852 209.0232,0.265851852 L209.0232,0.265851852 Z M205.0848,40.352 C199.4328,40.352 194.844,35.7786296 194.844,30.1322716 C194.844,24.4919012 199.4328,19.9185309 205.0848,19.9185309 C210.7416,19.9185309 215.3244,24.4919012 215.3244,30.1322716 C215.3256,35.7786296 210.7416,40.352 205.0848,40.352 L205.0848,40.352 Z" id="Shape"></path>
                            <path d="M209.0232,66.697679 L30.9828,66.697679 C14.4468,66.697679 1.0476,80.0681111 1.0476,96.571284 C1.0476,113.074457 14.4468,126.444889 30.9828,126.444889 L209.0232,126.444889 C225.552,126.444889 238.9644,113.074457 238.9644,96.571284 C238.9644,80.0681111 225.5532,66.697679 209.0232,66.697679 L209.0232,66.697679 Z M205.0848,106.798198 C199.4328,106.798198 194.844,102.211654 194.844,96.571284 C194.844,90.9309136 199.4328,86.3515556 205.0848,86.3515556 C210.7416,86.3515556 215.3244,90.9321111 215.3244,96.571284 C215.3244,102.210457 210.7416,106.798198 205.0848,106.798198 L205.0848,106.798198 Z" id="Shape"></path>
                            <path d="M209.0232,133.130704 L30.9828,133.130704 C14.4468,133.130704 1.0476,146.501136 1.0476,163.003111 C1.0476,179.505086 14.4468,192.882704 30.9828,192.882704 L209.0232,192.882704 C225.552,192.882704 238.9644,179.505086 238.9644,163.003111 C238.9644,146.501136 225.5532,133.130704 209.0232,133.130704 L209.0232,133.130704 Z M205.0848,173.216852 C199.4328,173.216852 194.844,168.650667 194.844,163.004309 C194.844,157.357951 199.4328,152.78458 205.0848,152.78458 C210.7416,152.78458 215.3244,157.357951 215.3244,163.004309 C215.3256,168.649469 210.7416,173.216852 205.0848,173.216852 L205.0848,173.216852 Z" id="Shape"></path>
                        </g>
                        <g id="Group" transform="translate(87.000000, 201.000000)" fill="#CCCCCC">
                            <rect id="Rectangle-path" x="0.921011628" y="23.7699487" width="101.171151" height="22.9625128"></rect>
                            <rect id="Rectangle-path" x="44.6516977" y="0.0361538462" width="13.6978023" height="34.4425641"></rect>
                        </g>
                        <g id="Group" transform="translate(0.000000, 231.000000)" fill="#CCCCCC">
                            <rect id="Rectangle-path" x="0.975396552" y="0.778285714" width="81.1460431" height="7.18628571"></rect>
                            <rect id="Rectangle-path" x="195.884552" y="0.778285714" width="81.1400517" height="7.18628571"></rect>
                        </g>
                    </g>
                </g>
            </g>
            <g id="Layer_1"></g>
        </g>
    </g>
</svg>