<?xml version="1.0" encoding="UTF-8" standalone="no"?>
<svg width="270px" height="196px" viewBox="0 0 270 196" version="1.1" xmlns="http://www.w3.org/2000/svg" xmlns:xlink="http://www.w3.org/1999/xlink" xmlns:sketch="http://www.bohemiancoding.com/sketch/ns">
    <!-- Generator: Sketch 3.5 (25232) - http://www.bohemiancoding.com/sketch -->
    <title>firewall</title>
    <g id="Page-1" stroke="none" stroke-width="1" fill="none" fill-rule="evenodd" sketch:type="MSPage">
        <g id="firewall" sketch:type="MSLayerGroup">
            <g id="wall" transform="translate(0.000000, 10.000000)" fill="#333333" sketch:type="MSShapeGroup">
                <path d="M177.686,0.343 L109.539,0.343 C105.424,0.343 102.058,3.712 102.058,7.824 L102.058,46.854 C102.058,50.972 105.424,54.336 109.539,54.336 L127.651,54.336 C139.576,36.416 156.441,18.154 177.686,0.343 L177.686,0.343 Z" id="Shape"></path>
                <path d="M10.244,54.336 L82.298,54.336 C86.408,54.336 89.78,50.972 89.78,46.854 L89.78,7.824 C89.78,3.712 86.408,0.343 82.298,0.343 L10.244,0.343 C6.129,0.343 2.763,3.712 2.763,7.824 L2.763,46.854 C2.763,50.972 6.129,54.336 10.244,54.336 L10.244,54.336 Z" id="Shape"></path>
                <path d="M120.612,65.843 L8.009,65.843 C3.891,65.843 0.52,69.207 0.52,73.33 L0.52,112.365 C0.52,116.483 3.892,119.847 8.009,119.847 L107.182,119.847 C107.065,117.487 106.949,115.121 106.954,112.642 C106.954,97.88 111.677,82.075 120.612,65.843 L120.612,65.843 Z" id="Shape"></path>
                <path d="M82.298,131.224 L10.244,131.224 C6.129,131.224 2.763,134.588 2.763,138.706 L2.763,177.736 C2.763,181.859 6.129,185.223 10.244,185.223 L82.298,185.223 C86.408,185.223 89.78,181.859 89.78,177.736 L89.78,138.706 C89.78,134.588 86.408,131.224 82.298,131.224 L82.298,131.224 Z" id="Shape"></path>
                <path d="M108.186,131.354 C104.719,132 102.058,135.054 102.058,138.706 L102.058,177.736 C102.058,181.859 105.424,185.223 109.539,185.223 L142.965,185.223 C137.355,182.147 132.293,178.517 127.955,174.176 C117.254,163.461 110.729,149.345 108.186,131.354 L108.186,131.354 Z" id="Shape"></path>
            </g>
            <path d="M258.584,130.405 C258.394,128.127 257.819,125.745 257.038,123.331 C256.712,82.147 269.483,65.117 269.483,65.117 C269.483,65.117 250.266,65.578 228.049,77.806 C227.577,77.139 227.121,76.472 226.644,75.81 C227.328,59.116 230.55,42.444 235.26,30.118 C232.488,31.637 220.72,36.617 208.86,45.504 C202.762,30.937 200.869,15.876 208.123,0.777 C151.689,41.228 118.062,86.357 118.062,122.652 C118.032,150.929 125.096,195.222 193.464,195.222 C233.72,195.222 254.249,179.797 258.053,149.876 L258.948,150.776 C258.774,149.426 258.699,148.188 258.547,146.881 C258.975,141.761 259.066,136.33 258.584,130.405 L258.584,130.405 Z M224.974,162.534 C220.569,170.206 218.367,172.469 190.03,173.271 C161.688,174.074 156.43,167.911 151.201,158.281 C136.29,130.78 155.118,113.435 154.033,115.442 C152.97,117.444 147.246,135.126 174.541,149.584 C161.13,132.869 185.511,112.898 194.55,103.658 C194.55,127.351 204.163,149.584 204.163,149.584 C204.163,149.584 219.718,140.448 230.932,107.538 C236.823,133.118 237.843,140.139 224.974,162.534 L224.974,162.534 Z" id="fire" fill="#CCCCCC" sketch:type="MSShapeGroup"></path>
        </g>
    </g>
</svg>
