<svg width="320" height="365" viewBox="0 0 320 365" xmlns="http://www.w3.org/2000/svg"><title>globe with shield</title><g id="Page-1" fill="none" fill-rule="evenodd"><g id="globe-with-shield"><g id="globe_lines" fill="#333"><path d="M151.74 305.433c-22.77-16.89-41.69-39.92-53.712-64.875 12.767-6.01 26.296-9.797 40.654-11.788-.06-3.344-.072-6.506-.072-9.48-15.53 2.117-30.61 6.396-44.554 12.48-7.732-18.874-12.75-40.37-13.614-60.543l.163-3.643 60.372-.1 16.663.073-.038 24.924 9.43-3.597.104-21.286 56.048-.123 9.903-3.777 9.92 3.79 1.318.098c0 .133-.015.257-.015.393l9.265 3.537c.052-1.347.15-2.707.177-4.034l54.895-.11c.644.36 1.537.144 2.33.222-.33 8.402-1.4 16.62-3.066 24.65l8.7 3.313c8.313-39.643 1.132-84.58-19.26-117.637C271.01 33.178 221.67 3.158 171.917.452c-65.98-5.048-129.372 32.57-157.272 93.213-20.062 40.735-19.297 98.147.983 138.34 25.57 55.162 85.3 92.77 145.618 90.93-4.022-6.375-7.12-12.322-9.407-17.28-.04-.072-.066-.15-.1-.222zM311.03 158.09l-57.228.117c-.833-26.592-6.73-50.426-16.496-73.335 12.46-6.663 24.12-15.295 34.7-25.62 24.87 27.356 37.877 61.007 39.023 98.837zM265.52 52.21c-9.47 9.668-20.83 18.09-32.557 24.39-12.305-25.1-34.64-50.108-58.1-66.715 33.758 3.578 64.975 17.306 90.658 42.325zm-98.293-35.864c23.398 15.444 45.15 40.152 57.46 64.38-17.727 8.692-36.47 14.007-57.59 14.64l.13-79.02zm-.17 88.52c21.635-.78 42.71-6.38 61.616-15.494 9.694 21.07 15.072 43.953 15.69 68.782l-77.03.175-.137-.15-.143-52.58.005-.733zm-9.517 53.417l-77.188.013c.616-24.094 5.474-46.268 14.476-67.054 19.407 8.268 41.086 13.772 62.936 13.945l-.224 53.095zm.062-62.595c-22.295-.458-39.965-5.14-58.71-13.04 12.84-26.307 34.367-50.75 59.068-67.955l-.358 80.995zm-8.904-85.927C124.57 27.55 102.823 53.017 90.504 78.38 77.67 71.968 64.697 63 54.808 52.51c25.99-25.084 58.068-40.053 93.89-42.747zM9.508 146.59c.662-.51-.14-1.463.38-2.11 4.08-31.83 16.054-61.06 38.235-85.216C59.773 70.424 72.59 80.046 86.45 86.97c-9.603 21.87-15.052 48.362-15.447 71.288l-61.685.093-.222-.22.413-11.54zM47.73 263.48C23.65 236.565 10.57 204.224 9.046 167.62l56.87-.1 5.262.166c.403 24.4 5.78 47.136 14.593 68.288-14.125 7.16-26.378 16.972-38.04 27.504zm6.687 7.033c10.212-11.053 22.894-19.1 34.984-25.905 12.526 25.32 32.726 50.756 56.91 68.61-35.356-3-66.86-18.49-91.895-42.704z" id="Shape"/></g><g id="shield"><g id="outter_shield" fill="#333"><path d="M313.655 209.754h.027l-80.295-30.583-80.315 30.584c-.095 19.9-.86 62.655 11.885 90.164 11.906 25.715 33.933 52.516 68.43 64.952 34.455-12.436 56.488-39.236 68.397-64.952 12.743-27.51 11.962-70.263 11.87-90.164zm-16.792 12.33c-.802 22.386-1.552 51.808-10.293 70.694-10.318 22.28-28.27 43.964-53.184 54.5-24.973-10.536-42.92-32.22-53.218-54.5-8.754-18.886-9.478-48.308-10.312-70.694l63.71-24.472 63.708 24.472h-.41z" id="Shape"/></g><g id="inside_shield" fill="#CCC"><path d="M190.976 288.323c.698 1.502 1.474 2.998 2.27 4.48l84.362-63.994-44-16.95-51.157 19.718c.744 16.183 1.2 40.948 8.526 56.745zM233.386 333.787c19.802-8.85 34.15-26.664 42.403-44.464 5.754-12.487 7.24-30.476 7.984-45.49l-82.59 62.756c8.188 11.277 18.917 21.278 32.202 27.197z" id="Shape"/></g></g></g></g></svg>