<svg xmlns="http://www.w3.org/2000/svg" viewBox="0 0 186 52">
  <g fill="none" fill-rule="evenodd">
    <path fill="#010101" d="M38.53 49.077c-.517 0-1.02-.27-1.292-.752-.403-.712-.153-1.616.56-2.02 9.51-5.387 13.962-16.857 10.586-27.27C44.448 6.892 31.367.217 19.224 4.153 9.886 7.183 3.454 15.805 3.216 25.61c-.02.82-.705 1.48-1.517 1.448-.82-.02-1.468-.7-1.448-1.517C.52 14.48 7.776 4.75 18.31 1.336 32.004-3.105 46.76 4.425 51.2 18.12c3.81 11.75-1.214 24.687-11.944 30.765-.232.13-.483.193-.73.193M26.255 51.53c-4.098 0-8.16-1.002-11.875-2.974-5.895-3.13-10.255-8.358-12.278-14.718-.308-.97-.562-1.97-.753-2.973-.08-.402.184-.79.586-.867.403-.073.79.187.867.59.18.944.42 1.887.71 2.8 1.905 5.99 6.01 10.912 11.56 13.86 5.543 2.94 11.906 3.59 17.92 1.828.174-.05.35-.105.524-.16.39-.126.806.088.932.478.124.39-.09.806-.48.93-.186.06-.374.118-.56.173-2.356.69-4.76 1.033-7.156 1.033"/>
    <path fill="#ED2224" d="M26.31 46.604c-3.917 0-7.755-1.132-11.115-3.32-4.574-2.982-7.713-7.565-8.84-12.908C5.228 25.036 6.248 19.573 9.23 15c2.98-4.576 7.562-7.716 12.905-8.843 6.652-1.405 13.547.585 18.443 5.32.392.38.402 1.005.023 1.397-.38.392-1.005.403-1.397.024-4.423-4.28-10.65-6.076-16.66-4.808-4.827 1.017-8.968 3.854-11.66 7.986-2.693 4.132-3.615 9.065-2.596 13.89 1.017 4.826 3.853 8.967 7.984 11.66 4.133 2.692 9.064 3.614 13.89 2.595 8.496-1.79 14.52-9.093 14.656-17.76.007-.54.447-.972.986-.972h.016c.545.008.98.458.972 1.003-.147 9.596-6.82 17.68-16.22 19.665-1.42.3-2.847.447-4.263.447"/>
    <path fill="#010101" d="M38.053 35.564c-.244 0-.49-.072-.705-.222-.56-.39-.697-1.16-.307-1.72 2.385-3.42 2.995-7.806 1.633-11.735-2.353-6.794-9.794-10.407-16.587-8.053-2.314.8-4.344 2.228-5.874 4.124-.427.53-1.205.614-1.735.186s-.614-1.205-.186-1.736c1.82-2.258 4.236-3.954 6.988-4.908 8.08-2.8 16.93 1.498 19.73 9.578 1.62 4.674.894 9.89-1.94 13.957-.24.344-.624.53-1.014.53m-11.73 5.61c-2.88 0-5.698-.83-8.166-2.44-3.36-2.19-5.666-5.555-6.494-9.48-.428-2.025-.436-4.074-.026-6.09.082-.4.472-.657.874-.577.4.082.66.473.578.874-.37 1.815-.362 3.66.024 5.488.745 3.537 2.824 6.57 5.852 8.545 3.028 1.973 6.644 2.65 10.18 1.904 1.228-.26 2.407-.685 3.503-1.26.36-.19.81-.05 1 .31.19.362.05.81-.31 1-1.22.64-2.527 1.11-3.89 1.397-1.04.22-2.09.328-3.127.328"/>
    <path fill="#231F20" d="M65.536 10.75h3.343v14.977h-3.345V10.75zm21.62 0H90.5v14.977h-3.345l-7.135-9.385v9.385h-3.34V10.75h3.13l7.348 9.642-.002-9.642zm21.426 0v2.935h-6.942v3.236h6.6v2.937h-6.6v5.87h-3.343V10.75h10.285zM127.888 23.66c-1.515 1.478-3.378 2.217-5.593 2.217-2.214 0-4.078-.74-5.592-2.217-1.515-1.48-2.27-3.318-2.27-5.518 0-2.2.755-4.04 2.27-5.517 1.514-1.478 3.378-2.217 5.592-2.217 2.215 0 4.078.74 5.593 2.217 1.514 1.478 2.27 3.318 2.27 5.517 0 2.2-.756 4.04-2.27 5.518zm-1.136-5.507c0-1.335-.43-2.474-1.286-3.418-.857-.942-1.91-1.413-3.16-1.413-1.25 0-2.303.47-3.16 1.413-.858.944-1.286 2.083-1.286 3.418 0 1.336.428 2.47 1.286 3.407.857.936 1.91 1.403 3.16 1.403 1.25 0 2.303-.467 3.16-1.403.857-.936 1.286-2.07 1.286-3.407zm13.638-4.413c-.32.263-.482.613-.482 1.05 0 .435.196.78.59 1.038.392.257 1.3.56 2.72.91 1.422.35 2.525.876 3.31 1.575.786.7 1.18 1.722 1.18 3.064 0 1.343-.504 2.432-1.51 3.268-1.01.836-2.334 1.254-3.976 1.254-2.37 0-4.507-.88-6.407-2.638l1.993-2.443c1.614 1.413 3.107 2.12 4.478 2.12.614 0 1.096-.13 1.446-.396.35-.264.525-.62.525-1.07 0-.45-.185-.808-.556-1.072-.37-.264-1.106-.532-2.206-.804-1.743-.415-3.017-.954-3.824-1.618-.81-.665-1.212-1.707-1.212-3.13 0-1.42.51-2.517 1.532-3.288 1.02-.77 2.296-1.157 3.825-1.157 1 0 2 .172 3 .514 1 .344 1.87.83 2.614 1.457l-1.695 2.443c-1.3-.984-2.643-1.478-4.03-1.478-.556 0-.995.133-1.316.397zm25.1-2.99v2.978h-7.456v3.086h6.707v2.85h-6.705v3.106h7.692v2.957h-11.034V10.75h10.797zm14.034 12.02c1.643 0 2.986-.65 4.028-1.95l2.143 2.207c-1.7 1.914-3.703 2.87-6.01 2.87s-4.207-.727-5.7-2.184c-1.492-1.457-2.24-3.296-2.24-5.517 0-2.22.762-4.075 2.283-5.56 1.522-1.486 3.382-2.23 5.582-2.23 2.456 0 4.514.937 6.17 2.808l-2.078 2.357c-1.056-1.312-2.37-1.97-3.942-1.97-1.257 0-2.332.41-3.225 1.233-.893.82-1.34 1.928-1.34 3.32 0 1.393.422 2.51 1.266 3.354.844.843 1.865 1.264 3.065 1.264zM70.844 36.9h2.08v3.284c-.92 1.024-2.19 1.536-3.815 1.536-1.36 0-2.503-.45-3.424-1.35-.923-.9-1.384-2.037-1.384-3.41 0-1.372.47-2.517 1.41-3.435.94-.918 2.074-1.377 3.402-1.377 1.33 0 2.483.437 3.462 1.31l-1.072 1.55c-.415-.36-.796-.61-1.145-.748-.35-.137-.727-.205-1.133-.205-.786 0-1.448.267-1.986.8-.54.535-.807 1.24-.807 2.112 0 .874.258 1.574.775 2.1.515.523 1.13.786 1.846.786.715 0 1.31-.136 1.787-.41V36.9h.003zm6.208 4.714V32.36h2.065v7.414h3.945v1.84h-6.01zm16.68-1.277c-.934.913-2.086 1.37-3.454 1.37-1.368 0-2.52-.457-3.455-1.37-.936-.914-1.403-2.05-1.403-3.41 0-1.36.467-2.495 1.403-3.41.935-.912 2.087-1.37 3.455-1.37 1.368 0 2.52.458 3.455 1.37.936.915 1.404 2.05 1.404 3.41 0 1.36-.468 2.496-1.404 3.41zm-.7-3.403c0-.825-.265-1.53-.794-2.112-.53-.582-1.18-.874-1.953-.874-.773 0-1.423.292-1.953.874-.53.583-.794 1.287-.794 2.112 0 .825.264 1.527.794 2.104.53.58 1.18.868 1.953.868.772 0 1.423-.29 1.953-.868.53-.577.794-1.28.794-2.104zm9.308 4.68h-4.052V32.36h3.6c.628 0 1.168.075 1.623.225.456.15.798.353 1.027.61.415.476.623 1.014.623 1.614 0 .723-.235 1.26-.703 1.614-.16.124-.27.2-.33.23-.063.032-.173.083-.332.153.574.125 1.03.383 1.37.775.34.393.51.88.51 1.463 0 .644-.22 1.214-.662 1.708-.512.574-1.403.86-2.674.86zm-1.988-5.508h.98c.574 0 1-.06 1.277-.186.28-.122.417-.39.417-.8 0-.41-.128-.68-.384-.813-.256-.133-.69-.2-1.298-.2h-.993v2zm0 3.76h1.417c.59 0 1.034-.073 1.33-.22.295-.144.442-.43.442-.86 0-.427-.156-.71-.47-.847-.313-.137-.814-.206-1.502-.206h-1.217v2.132zm15.544 1.748l-.86-2h-3.88l-.86 2h-2.198l3.997-9.254h2l3.998 9.254h-2.197zm-2.794-6.5l-1.165 2.688h2.317l-1.152-2.688zm8.076 6.5V32.36h2.065v7.414h3.945v1.84h-6.01z"/>
    <path fill="#010101" d="M26.377 36.748c-.5 0-1.006-.035-1.51-.107-5.774-.82-9.804-6.185-8.983-11.96.397-2.795 1.86-5.27 4.12-6.966 2.26-1.697 5.043-2.412 7.84-2.014.81.115 1.374.865 1.258 1.676-.115.81-.863 1.375-1.676 1.258-2.012-.287-4.016.228-5.643 1.45-1.626 1.22-2.68 3-2.965 5.014-.59 4.155 2.31 8.017 6.466 8.608 2.012.286 4.016-.23 5.642-1.45 1.626-1.222 2.68-3.003 2.965-5.015.23-1.605-.05-3.21-.81-4.637-.384-.723-.11-1.62.613-2.004.722-.386 1.62-.11 2.004.61 1.058 1.987 1.448 4.217 1.13 6.45-.398 2.795-1.86 5.27-4.12 6.967-1.852 1.39-4.055 2.122-6.33 2.122"/>
  </g>
</svg>
