<?xml version="1.0" encoding="UTF-8" standalone="no"?>
<svg width="510px" height="510px" viewBox="0 0 510 510" version="1.1" xmlns="http://www.w3.org/2000/svg" xmlns:xlink="http://www.w3.org/1999/xlink" xmlns:sketch="http://www.bohemiancoding.com/sketch/ns">
    <!-- Generator: Sketch 3.3.3 (12081) - http://www.bohemiancoding.com/sketch -->
    <title>Oval Copy + cloud-globe_1_</title>
    <desc>Created with Sketch.</desc>
    <defs></defs>
    <g id="Page-1" stroke="none" stroke-width="1" fill="none" fill-rule="evenodd" sketch:type="MSPage">
        <g id="Oval-Copy-+-cloud-globe_1_" sketch:type="MSLayerGroup" transform="translate(5.000000, 5.000000)">
            <circle id="Oval-Copy" stroke="#333333" stroke-width="10" sketch:type="MSShapeGroup" cx="250" cy="250" r="250"></circle>
            <g id="cloud-globe_1_" transform="translate(90.000000, 90.000000)" sketch:type="MSShapeGroup">
                <path d="M159.506996,318.522899 C94.0882105,318.522899 37.9428114,279.014469 13.5253202,222.592044 C5.1655614,203.239377 0.498087719,181.927939 0.498087719,159.520987 C0.498087719,71.7022456 71.6658684,0.512078947 159.506996,0.512078947 C247.287961,0.512078947 318.455741,71.7022456 318.455741,159.520987 C318.455741,181.927939 313.772877,203.237978 305.399127,222.592044 C280.995627,279.014469 224.881009,318.522899 159.506996,318.522899 L159.506996,318.522899 Z" id="Shape" stroke="#333333" stroke-width="7" fill="#FFFFFF"></path>
                <path d="M266.334219,47.9003684 L246.957768,47.9003684 L246.011961,52.7021579 L241.629908,55.5997412 L232.460057,56.5749298 L232.939956,50.7657719 L224.729904,49.3470614 L226.18639,43.554693 L213.609675,46.4438816 L206.857509,58.0370132 L195.225202,66.7493509 L194.279395,77.8387982 L205.85014,80.7279868 L212.648478,83.6549518 L216.039952,80.2774693 L216.039952,61.886 L220.392623,61.886 L220.392623,71.0852325 L228.587285,71.0852325 L228.587285,80.7265877 L220.873921,80.7265877 L220.873921,87.4955439 L201.54364,87.4955439 L201.54364,94.2631009 L195.223803,94.2631009 L186.563232,85.5745482 L186.563232,79.7891754 L176.418193,79.7891754 L176.418193,89.4543158 L176.418193,94.2645 L173.731877,96.9144386 L178.774316,102.017039 L185.108145,95.7279825 L189.895943,100.553557 L187.225018,103.202096 L187.225018,106.865 L183.173158,106.865 L183.173158,122.337899 L183.173158,127.127096 L194.279395,127.127096 L194.279395,117.004443 L199.832513,111.428939 L206.36082,104.900632 L215.050772,113.604575 L215.050772,117.468952 L220.873921,123.276711 L228.091996,123.276711 L219.161395,114.34611 L225.239184,114.34611 L234.995268,124.117583 L234.995268,117.004443 L244.104956,107.88636 L252.750136,107.88636 L258.528513,113.62836 L249.403434,113.62836 L244.075575,118.95482 L238.522456,124.485553 L247.917566,124.485553 L247.917566,131.02925 L210.728882,131.02925 L210.728882,125.692996 L203.945934,125.692996 L198.633465,125.692996 L188.473035,135.860421 L172.534228,135.860421 L163.108338,145.233145 L163.108338,173.07289 L174.064868,184.072794 L202.008149,184.072794 L215.379566,197.423224 L215.379566,222.592044 L215.379566,231.048342 L226.095447,241.771219 L226.095447,260.021377 L246.010561,260.021377 L254.459864,251.587465 L254.459864,231.049741 L265.29607,231.049741 L265.29607,222.593443 L265.29607,211.741846 L265.29607,190.934092 L279.599303,176.685425 L279.599303,165.346934 L263.854974,165.346934 L250.108592,151.576768 L250.108592,142.135487 L256.110829,142.135487 L256.110829,148.875061 L266.302039,159.028496 L287.058026,159.028496 L287.058026,146.458776 L276.882206,136.320732 L280.28907,132.936254 L313.922583,166.576763 C314.042908,164.219241 314.08768,161.902294 314.08768,159.522386 C314.08768,115.682272 295.703206,76.0409254 266.334219,47.9003684 L266.334219,47.9003684 Z" id="Shape" fill="#333333"></path>
                <path d="M135.314763,180.80864 L120.803061,180.80864 L120.803061,176.930272 L80.250886,176.930272 L59.9300263,157.622377 L59.9300263,148.873662 L80.6552325,148.873662 L80.6552325,156.624803 L86.9904605,156.624803 L86.9904605,142.134088 L91.5669912,137.542167 L98.3807193,130.77461 L104.128316,124.965452 L108.704846,120.352544 L108.704846,116.022259 L113.808846,110.96443 L115.999873,113.124675 L121.281561,107.812206 L113.086899,107.812206 L113.086899,103.46793 L118.880667,103.46793 L118.880667,96.7003728 L124.703816,96.7003728 L124.703816,80.2816667 L111.165904,80.2816667 L111.165904,77.3630965 L98.0645175,77.3630965 L98.0645175,101.060039 L93.2753202,102.492741 L89.388557,93.3158947 L77.8024211,85.1142368 L71.0488553,75.9359912 L82.6056096,77.3616974 L86.4923728,71.0880307 L83.1316798,67.2152588 L81.6612018,62.3840877 L96.1882939,61.4382807 L98.0645175,51.2764518 L49.6940439,50.8259342 C34.3106886,66.2848421 22.2292632,85.0079035 14.4865175,105.800268 L14.4865175,135.349741 L18.3886711,136.317934 L22.7259518,153.254316 L31.4298947,163.894645 L31.4298947,151.782439 L27.9936491,149.846053 L29.9901974,144.548974 L36.9690219,148.870864 L36.9690219,163.122329 L47.3547105,173.544395 L61.8818026,173.544395 L78.2697281,185.632816 L78.2697281,212.669465 L88.8484956,222.589246 L101.966671,234.89593 L101.966671,288.083583 L124.207127,308.358272 L124.207127,282.275825 L144.003316,267.755728 L144.003316,246.031548 L150.801654,236.328632 L163.858268,236.328632 L163.858268,222.589246 L163.858268,201.083329 L151.280154,201.083329 L135.314763,180.80864 L135.314763,180.80864 Z" id="Shape" fill="#333333"></path>
                <path d="M84.8274167,39.9015833 L90.8450439,33.8531754 L90.8450439,25.6585132 L97.1187105,25.6585132 L97.1187105,39.6623333 L106.814632,39.6623333 L106.814632,68.6731447 L120.803061,68.6731447 L120.803061,28.5407061 L114.558776,28.5407061 L102.461961,28.5407061 L102.461961,19.8675439 L111.165904,19.8675439 L116.254513,14.7943246 L113.386311,11.9205263 C96.3072193,17.2707719 80.5335088,25.4640351 66.6234298,35.9854386 L70.5857456,39.9029825 L84.8274167,39.9029825 L84.8274167,39.9015833 Z" id="Shape" fill="#333333"></path>
                <path d="M159.972904,69.6455351 L177.592057,51.9732149 L184.870294,44.73975 L193.304206,44.73975 L193.304206,27.1066053 L193.304206,14.5522763 L182.21336,14.5522763 L182.21336,6.58287281 C174.814798,5.45797807 167.206368,4.88853509 159.506996,4.88853509 C157.706325,4.88853509 155.979807,4.97807895 154.254689,5.02425 L153.683846,6.31424123 L153.683846,18.4180526 L144.003316,18.4180526 L144.003316,42.0786184 L145.458404,42.0786184 L150.801654,42.0786184 L150.801654,51.2778509 L143.072899,51.2778509 L143.072899,71.0894298 L150.801654,78.8335746 L159.972904,69.6455351 L159.972904,69.6455351 Z" id="Shape" fill="#333333"></path>
            </g>
        </g>
    </g>
</svg>