<?xml version="1.0" encoding="UTF-8"?>
<svg width="12px" height="10px" viewBox="0 0 12 10" version="1.1" xmlns="http://www.w3.org/2000/svg" xmlns:xlink="http://www.w3.org/1999/xlink">
    <!-- Generator: Sketch 41.1 (35376) - http://www.bohemiancoding.com/sketch -->
    <title>Combined Shape Copy</title>
    <desc>Created with Sketch.</desc>
    <defs></defs>
    <g id="Page-1" stroke="none" stroke-width="1" fill="none" fill-rule="evenodd">
        <g id="Desktop-Copy-7" transform="translate(-659.000000, -267.000000)" stroke="#51CF73" fill="#51CF73">
            <path d="M665.621828,273.98991 L663.821515,273.98991 C663.226399,273.98991 662.755204,274.468207 662.755204,275.058217 C662.755204,275.65234 663.232608,276.126524 663.821515,276.126524 L666.603106,276.126524 C666.610325,276.126524 666.617526,276.126454 666.624708,276.126314 C666.631663,276.126454 666.638635,276.126524 666.645623,276.126524 C667.214991,276.126524 667.669417,275.672185 667.669417,275.111728 L667.669417,267.312893 C667.669417,266.75896 667.211049,266.298097 666.645623,266.298097 C666.076255,266.298097 665.621828,266.752437 665.621828,267.312893 L665.621828,273.98991 Z" id="Combined-Shape-Copy" transform="translate(665.212311, 271.212311) rotate(-315.000000) translate(-665.212311, -271.212311) "></path>
        </g>
    </g>
</svg>