<?xml version="1.0" encoding="UTF-8" standalone="no"?>
<svg width="231px" height="206px" viewBox="0 0 231 206" version="1.1" xmlns="http://www.w3.org/2000/svg" xmlns:xlink="http://www.w3.org/1999/xlink" xmlns:sketch="http://www.bohemiancoding.com/sketch/ns">
    <!-- Generator: Sketch 3.3.3 (12081) - http://www.bohemiancoding.com/sketch -->
    <title>Down</title>
    <desc>Created with Sketch.</desc>
    <defs></defs>
    <g id="Page-1" stroke="none" stroke-width="1" fill="none" fill-rule="evenodd" sketch:type="MSPage">
        <g id="Down" sketch:type="MSLayerGroup" transform="translate(2.000000, 2.000000)">
            <path d="M226.868917,179.613347 C226.868917,191.891603 220.443919,202.065015 212.68961,202.065015 L14.1793073,202.065015 C6.42499863,202.065015 0,191.891603 0,179.613347 C0,173.649622 1.55086174,168.036705 4.20948186,163.827017 L103.464633,6.66533904 C106.123253,2.45565122 109.66808,-8.52651283e-14 113.434459,-8.52651283e-14 C117.200837,-8.52651283e-14 120.745664,2.45565122 123.404284,6.66533904 L222.659435,163.827017 C225.318056,168.036705 226.868917,173.649622 226.868917,179.613347 L226.868917,179.613347 Z" id="glow" stroke-opacity="0.4" stroke="#DD3D38" stroke-width="3" fill-opacity="0.3" fill="#FF554E" sketch:type="MSShapeGroup"></path>
            <path d="M173.106182,154.213455 C173.106182,161.063984 169.733057,166.740137 165.662045,166.740137 L61.4441363,166.740137 C57.3731243,166.740137 54,161.063984 54,154.213455 C54,150.886055 54.8142024,147.754385 56.209978,145.405632 L108.318932,57.7188587 C109.714708,55.3701058 111.575742,54 113.553091,54 C115.530439,54 117.391474,55.3701058 118.787249,57.7188587 L170.896204,145.405632 C172.291979,147.754385 173.106182,150.886055 173.106182,154.213455 L173.106182,154.213455 Z" id="core" stroke="#DD3D38" stroke-width="2.7" fill="#FF554E" sketch:type="MSShapeGroup"></path>
            <g id="!" transform="translate(102.000000, 93.000000)" fill="#FFFFFF" sketch:type="MSShapeGroup">
                <path d="M0.0774436856,0.0485494469 L22.7597062,0.0485494469 L18.5103144,30.3767953 L3.82109265,30.3767967 L0.0774436856,0.0485494469 Z" id="Path-120"></path>
                <path d="M1.46495578,35.8874182 L21.2769483,35.8874182 L19.9946159,50.3180069 L2.60803738,50.3180069 L1.46495578,35.8874182 Z" id="Path-121"></path>
            </g>
        </g>
    </g>
</svg>