<?xml version="1.0" encoding="UTF-8" standalone="no"?>
<svg width="228px" height="60px" viewBox="0 0 228 60" version="1.1" xmlns="http://www.w3.org/2000/svg" xmlns:xlink="http://www.w3.org/1999/xlink" xmlns:sketch="http://www.bohemiancoding.com/sketch/ns">
    <!-- Generator: Sketch 3.3.3 (12081) - http://www.bohemiancoding.com/sketch -->
    <title>Icons/Align center</title>
    <desc>Created with Sketch.</desc>
    <defs></defs>
    <g id="Page-1" stroke="none" stroke-width="1" fill="none" fill-rule="evenodd" sketch:type="MSPage">
        <g id="Icons/Align-center" sketch:type="MSLayerGroup" fill="#FFB729">
            <path d="M151.888987,24.9471999 C151.888987,22.2169397 150.454089,19.9547241 148.722317,19.9547241 L79.0555669,19.9547241 C77.323794,19.9547241 75.8888964,22.2169397 75.8888964,24.9471999 L75.8888964,34.9321515 C75.8888964,37.6624118 77.323794,39.9246274 79.0555669,39.9246274 L148.722317,39.9246274 C150.454089,39.9246274 151.888987,37.6624118 151.888987,34.9321515 L151.888987,24.9471999 Z" stroke="#DB9620" sketch:type="MSShapeGroup"></path>
            <path d="M228,15 C228,6.796875 223.695312,9.34363698e-13 218.5,9.34363698e-13 L9.5,9.34363698e-13 C4.3046875,9.34363698e-13 0,6.796875 0,15 L0,45 C0,53.203125 4.3046875,60 9.5,60 L218.5,60 C223.695312,60 228,53.203125 228,45 L228,15 Z" id="Icons/Align-center-Copy" fill-opacity="0.3" sketch:type="MSShapeGroup"></path>
        </g>
    </g>
</svg>