<?xml version="1.0" encoding="UTF-8" standalone="no"?>
<svg width="240px" height="135px" viewBox="0 0 240 135" version="1.1" xmlns="http://www.w3.org/2000/svg" xmlns:xlink="http://www.w3.org/1999/xlink" xmlns:sketch="http://www.bohemiancoding.com/sketch/ns">
    <!-- Generator: Sketch 3.3.3 (12081) - http://www.bohemiancoding.com/sketch -->
    <title>Icons/Sort up</title>
    <desc>Created with Sketch.</desc>
    <defs></defs>
    <g id="Page-1" stroke="none" stroke-width="1" fill="none" fill-rule="evenodd" sketch:type="MSPage">
        <g id="Icons/Sort-up" sketch:type="MSLayerGroup" transform="translate(0.000000, 15.000000)" fill="#1BBC2F">
            <path d="M160.000095,74.9999225 C160.000095,73.6717959 159.45322,72.4217944 158.515719,71.4842933 L123.515677,36.4842516 C122.578176,35.5467505 121.328174,34.9998748 120.000048,34.9998748 C118.671921,34.9998748 117.42192,35.5467505 116.484418,36.4842516 L81.4843768,71.4842933 C80.5468757,72.4217944 80,73.6717959 80,74.9999225 C80,77.7343008 82.2656277,79.9999285 85.000006,79.9999285 L155.000089,79.9999285 C157.734468,79.9999285 160.000095,77.7343008 160.000095,74.9999225 L160.000095,74.9999225 Z" stroke="#1BA326" sketch:type="MSShapeGroup"></path>
            <path d="M240.000286,105.000197 C240.000286,101.015817 238.359659,97.2658125 235.547156,94.4533091 L130.547031,-10.546816 C127.734527,-13.3593194 123.984523,-14.9999464 120.000143,-14.9999464 C116.015763,-14.9999464 112.265759,-13.3593194 109.453255,-10.546816 L4.45313031,94.4533091 C1.64062696,97.2658125 0,101.015817 0,105.000197 C0,113.203331 6.7968831,120.000215 15.0000179,120.000215 L225.000268,120.000215 C233.203403,120.000215 240.000286,113.203331 240.000286,105.000197 L240.000286,105.000197 Z" id="Icons/Sort-up-Copy" fill-opacity="0.3" sketch:type="MSShapeGroup"></path>
        </g>
    </g>
</svg>