<?xml version="1.0" ?><!DOCTYPE svg  PUBLIC '-//W3C//DTD SVG 1.1//EN'  'http://www.w3.org/Graphics/SVG/1.1/DTD/svg11.dtd'><svg enable-background="new 0 0 24 24" height="24px" id="Layer_1" version="1.1" viewBox="0 0 24 24" width="24px" xml:space="preserve" xmlns="http://www.w3.org/2000/svg" xmlns:xlink="http://www.w3.org/1999/xlink"><path d="M22.5,6c-2-2-5.2-2-7.2,0l-8.7,8.6c-1.2,1.2-1.2,3.1,0,4.3c1.2,1.2,3.1,1.2,4.3,0l7.2-7.2c0.4-0.4,0.4-1,0-1.4  c-0.4-0.4-1-0.4-1.4,0l-7.2,7.2c-0.4,0.4-1,0.4-1.4,0c-0.4-0.4-0.4-1,0-1.4l8.7-8.7c1.2-1.2,3.1-1.2,4.3,0c1.2,1.2,1.2,3.1,0,4.3  l-8.7,8.6c-2,2-5.2,2-7.2,0c-2-2-2-5.2,0-7.2L16.7,1.7c0.4-0.4,0.4-1,0-1.4s-1-0.4-1.4,0L3.7,11.8c-2.8,2.8-2.8,7.3,0,10.1  c2.8,2.8,7.3,2.8,10.1,0l8.7-8.6C24.4,11.3,24.4,8,22.5,6z"/></svg>