<?xml version="1.0" encoding="UTF-8" standalone="no"?>
<svg width="24px" height="24px" viewBox="0 0 24 24" version="1.1" xmlns="http://www.w3.org/2000/svg" xmlns:xlink="http://www.w3.org/1999/xlink">
    <!-- Generator: Sketch 3.8.3 (29802) - http://www.bohemiancoding.com/sketch -->
    <title>translate</title>
    <desc>Created with Sketch.</desc>
    <defs></defs>
    <g id="Page-1" stroke="none" stroke-width="1" fill="none" fill-rule="evenodd">
        <g id="1465947206_Translate" fill="#FFFFFF">
            <g id="Layer_1">
                <g id="translate">
                    <path d="M17,20 L2.5,20 C1.122,20 0,18.878 0,17.5 L0,2.5 C0,1.122 1.122,0 2.5,0 L10.5,0 C10.714,0 10.904,0.136 10.973,0.338 L17.473,19.338 C17.525,19.49 17.5,19.659 17.407,19.79 C17.313,19.922 17.162,20 17,20 L17,20 Z M2.5,1 C1.673,1 1,1.673 1,2.5 L1,17.5 C1,18.327 1.673,19 2.5,19 L16.3,19 L10.143,1 L2.5,1 L2.5,1 Z" id="Shape"></path>
                    <path d="M21.5,24 L13.5,24 C13.292,24 13.105,23.871 13.032,23.676 L11.532,19.676 C11.435,19.417 11.566,19.129 11.824,19.032 C12.083,18.936 12.371,19.066 12.468,19.324 L13.847,23 L21.5,23 C22.327,23 23,22.327 23,21.5 L23,6.5 C23,5.673 22.327,5 21.5,5 L12,5 C11.724,5 11.5,4.776 11.5,4.5 C11.5,4.224 11.724,4 12,4 L21.5,4 C22.878,4 24,5.122 24,6.5 L24,21.5 C24,22.878 22.878,24 21.5,24 L21.5,24 Z" id="Shape"></path>
                    <path d="M13.5,24 C13.383,24 13.266,23.959 13.171,23.876 C12.963,23.694 12.942,23.378 13.124,23.17 L16.624,19.17 C16.806,18.961 17.122,18.941 17.33,19.123 C17.538,19.305 17.559,19.621 17.377,19.829 L13.877,23.829 C13.777,23.942 13.639,24 13.5,24 L13.5,24 Z" id="Shape"></path>
                    <path d="M9.5,14 C9.294,14 9.102,13.873 9.029,13.668 L7,7.987 L4.971,13.668 C4.878,13.928 4.591,14.064 4.332,13.971 C4.072,13.878 3.936,13.592 4.029,13.332 L6.529,6.332 C6.671,5.934 7.329,5.934 7.47,6.332 L9.97,13.332 C10.063,13.592 9.928,13.878 9.667,13.971 C9.613,13.991 9.556,14 9.5,14 L9.5,14 Z" id="Shape"></path>
                    <path d="M8,11 L6,11 C5.724,11 5.5,10.776 5.5,10.5 C5.5,10.224 5.724,10 6,10 L8,10 C8.276,10 8.5,10.224 8.5,10.5 C8.5,10.776 8.276,11 8,11 L8,11 Z" id="Shape"></path>
                    <path d="M21.5,11 L14.5,11 C14.224,11 14,10.776 14,10.5 C14,10.224 14.224,10 14.5,10 L21.5,10 C21.776,10 22,10.224 22,10.5 C22,10.776 21.776,11 21.5,11 L21.5,11 Z" id="Shape"></path>
                    <path d="M17.5,11 C17.224,11 17,10.776 17,10.5 L17,9.5 C17,9.224 17.224,9 17.5,9 C17.776,9 18,9.224 18,9.5 L18,10.5 C18,10.776 17.776,11 17.5,11 L17.5,11 Z" id="Shape"></path>
                    <path d="M16,17 C15.843,17 15.689,16.927 15.592,16.79 C15.432,16.565 15.485,16.253 15.71,16.093 C17.899,14.538 19.5,11.366 19.5,10.501 C19.5,10.225 19.724,10.001 20,10.001 C20.276,10.001 20.5,10.225 20.5,10.501 C20.5,11.819 18.573,15.286 16.29,16.909 C16.202,16.97 16.101,17 16,17 L16,17 Z" id="Shape"></path>
                    <path d="M20,18 C19.879,18 19.758,17.957 19.663,17.869 C19.3,17.537 16.105,14.586 15.537,13.188 C15.433,12.932 15.557,12.641 15.812,12.537 C16.065,12.434 16.359,12.556 16.463,12.812 C16.872,13.819 19.399,16.271 20.338,17.131 C20.542,17.318 20.555,17.633 20.369,17.838 C20.27,17.945 20.135,18 20,18 L20,18 Z" id="Shape"></path>
                </g>
            </g>
        </g>
    </g>
</svg>