<?xml version="1.0" encoding="UTF-8" standalone="no"?>
<svg width="544px" height="530px" viewBox="0 0 544 530" version="1.1" xmlns="http://www.w3.org/2000/svg" xmlns:xlink="http://www.w3.org/1999/xlink" xmlns:sketch="http://www.bohemiancoding.com/sketch/ns">
    <!-- Generator: Sketch 3.4 (15575) - http://www.bohemiancoding.com/sketch -->
    <title>Blue J Logo</title>
    <desc>Created with Sketch.</desc>
    <defs></defs>
    <g id="Page-1" stroke="none" stroke-width="1" fill="none" fill-rule="evenodd" sketch:type="MSPage">
        <g id="Logo-Copy-2" sketch:type="MSArtboardGroup" transform="translate(-41.000000, -38.000000)">
            <g id="Blue-J-Logo" sketch:type="MSLayerGroup" transform="translate(41.000000, 38.000000)">
                <path d="M450.41076,34.4129983 C438.46176,34.4129983 319.409997,72.9116135 293.333444,72.9116135 C270.942819,72.9116135 215.121,41.876 202.027,25.807 C189.044,9.869 169.661,0.764 149.332,0.764 C147.578,0.764 145.84,0.831 144.082,0.969 C121.86,2.684 101.913,15.191 90.667,34.413 C77.956,56.142 71.24,81.002 71.24,106.288 C71.24,116.771 72.39,127.093 74.575,137.099 C72.003,144.379 70.631,152.129 70.631,160.039 C70.631,190.647 80.456,219.428 97.338,243.005 C97.808,246.678 123.753847,292.934578 124.831847,296.518578 C37.8823154,287.568993 6.62707986,356.070274 2.79297975,378.748711 C-4.61523404,422.567782 5.07144467,481.270646 30.9363396,504.405327 C119.882793,583.962883 261.734504,455.740227 304.500006,417.309349 C349.097359,377.232294 532.767463,150.420052 542.462531,93.1581727 C552.157599,35.8962937 465.46276,34.4129983 450.41076,34.4129983 Z" id="Shape" fill="#517FA4" sketch:type="MSShapeGroup"></path>
                <path d="M466.75513,105.328594 C497.681899,144.042 343.342237,313.560617 247.31536,398.216034 C179.297523,458.17923 109.511199,493.774391 69.8267883,443.985138 C19.9853032,381.452515 120.154716,333.481964 130.220298,381.452515 C169.849294,364.44577 215.87345,311.44809 235.019524,280.708 C202.331524,280.105 174.751524,258.51 165.247524,228.837 C169.800524,229.712 174.485524,230.176 179.297524,230.176 C186.113524,230.176 192.712524,229.263 198.974524,227.553 C164.803524,220.694 139.065524,190.507 139.065524,154.313 C149.138524,158.97 160.649524,162.334 172.891524,162.721 C152.850524,149.328 139.668524,126.46 139.668524,100.55 C139.668524,86.865 143.352524,74.031 149.786524,63 C186.627524,108.189 276.892058,141.042 303.728524,141.042 C330.56499,141.042 435.828361,66.6151886 466.75513,105.328594 Z" id="Shape" fill="#FFFFFF" sketch:type="MSShapeGroup"></path>
            </g>
        </g>
    </g>
</svg>