<?xml version="1.0" encoding="UTF-8" standalone="no"?>
<svg width="462px" height="395px" viewBox="0 0 462 395" version="1.1" xmlns="http://www.w3.org/2000/svg" xmlns:xlink="http://www.w3.org/1999/xlink" xmlns:sketch="http://www.bohemiancoding.com/sketch/ns">
    <!-- Generator: Sketch 3.4 (15575) - http://www.bohemiancoding.com/sketch -->
    <title>Blue J Logo</title>
    <desc>Created with Sketch.</desc>
    <defs></defs>
    <g id="Page-1" stroke="none" stroke-width="1" fill="none" fill-rule="evenodd" sketch:type="MSPage">
        <g id="Logo-Copy-3" sketch:type="MSArtboardGroup" transform="translate(-71.000000, -44.000000)" fill="#517FA4">
            <g id="Blue-J-Logo" sketch:type="MSLayerGroup" transform="translate(71.000000, 44.000000)">
                <path d="M457.295606,40.0665942 C488.222375,78.7799998 333.882712,251.298617 237.855836,335.954034 C169.837999,395.91723 117.03266,399.69616 89.3765628,389.904626 C64.7821778,381.197079 5.67363078,332.564806 1.34103134,301.499993 C-1.4337999,281.604405 9.01052408,252.987242 17.3820428,247.758004 C27.2703976,241.58128 55.697043,234.780577 74.0294252,247.758004 C98.0450542,264.758581 108.740754,319.190515 120.760774,319.190515 C164.91381,319.190515 206.413925,249.18609 225.56,218.446 C192.872,217.843 165.292,196.248 155.788,166.575 C160.341,167.45 165.026,167.914 169.838,167.914 C176.654,167.914 183.253,167.001 189.515,165.291 C155.344,158.432 129.606,128.245 129.606,92.051 C139.679,96.708 151.19,100.072 163.432,100.459 C143.391,87.066 130.209,64.198 130.209,38.288 C130.209,24.603 133.893,11.769 140.327,0.738 C177.168,45.927 267.432534,78.7800002 294.269,78.78 C321.105466,78.7799998 426.368837,1.3531886 457.295606,40.0665942 Z" id="Shape" sketch:type="MSShapeGroup"></path>
            </g>
        </g>
    </g>
</svg>