<?xml version="1.0" encoding="UTF-8" standalone="no"?>
<svg width="240px" height="135px" viewBox="0 0 240 135" version="1.1" xmlns="http://www.w3.org/2000/svg" xmlns:xlink="http://www.w3.org/1999/xlink" xmlns:sketch="http://www.bohemiancoding.com/sketch/ns">
    <!-- Generator: Sketch 3.3.3 (12081) - http://www.bohemiancoding.com/sketch -->
    <title>Icons/Sort down</title>
    <desc>Created with Sketch.</desc>
    <defs></defs>
    <g id="Page-1" stroke="none" stroke-width="1" fill="none" fill-rule="evenodd" sketch:type="MSPage">
        <g id="Icons/Sort-down" sketch:type="MSLayerGroup" fill="#FF554E">
            <path d="M160.000095,43.0001013 C160.000095,40.2657231 157.734468,38.0000954 155.000089,38.0000954 L85.000006,38.0000954 C82.2656277,38.0000954 80,40.2657231 80,43.0001013 C80,44.3282279 80.5468757,45.5782294 81.4843768,46.5157305 L116.484418,81.5157722 C117.42192,82.4532734 118.671921,83.000149 120.000048,83.000149 C121.328174,83.000149 122.578176,82.4532734 123.515677,81.5157722 L158.515719,46.5157305 C159.45322,45.5782294 160.000095,44.3282279 160.000095,43.0001013 L160.000095,43.0001013 Z" stroke="#DD3D38" sketch:type="MSShapeGroup"></path>
            <path d="M240.000286,15.000304 C240.000286,6.7971692 233.203403,0.000286102295 225.000268,0.000286102295 L15.0000179,0.000286102295 C6.7968831,0.000286102295 0,6.7971692 0,15.000304 C0,18.9846837 1.64062696,22.7346882 4.45313031,25.5471916 L109.453255,130.547317 C112.265759,133.35982 116.015763,135.000447 120.000143,135.000447 C123.984523,135.000447 127.734527,133.35982 130.547031,130.547317 L235.547156,25.5471916 C238.359659,22.7346882 240.000286,18.9846837 240.000286,15.000304 L240.000286,15.000304 Z" id="Icons/Sort-down-Copy" fill-opacity="0.3" sketch:type="MSShapeGroup"></path>
        </g>
    </g>
</svg>