<!-- Generator: Adobe Illustrator 18.0.0, SVG Export Plug-In  -->
<svg version="1.1"
	 xmlns="http://www.w3.org/2000/svg" xmlns:xlink="http://www.w3.org/1999/xlink" xmlns:a="http://ns.adobe.com/AdobeSVGViewerExtensions/3.0/"
	 x="0px" y="0px" width="189.5px" height="188.6px" viewBox="0 0 189.5 188.6" enable-background="new 0 0 189.5 188.6"
	 xml:space="preserve">
<defs>
</defs>
<g>
	<path id="XMLID_80_" fill="#CDCCCC" d="M140.1,177.7c-1,0-2.1-0.5-2.6-1.5c-0.8-1.4-0.3-3.3,1.1-4.1
		c36.5-20.7,53.6-64.7,40.6-104.6c-7.3-22.6-23-40.9-44.1-51.7C114,5,89.9,3.1,67.4,10.4C31.6,22,6.9,55.1,6,92.7
		c0,1.7-1.4,3-3.1,2.9c-1.7,0-3-1.4-2.9-3.1C1,52.4,27.3,17.1,65.5,4.7c24.1-7.8,49.8-5.8,72.3,5.7c22.5,11.5,39.3,31.1,47.1,55.2
		c13.8,42.7-4.4,89.6-43.4,111.7C141.1,177.6,140.6,177.7,140.1,177.7z"/>
</g>
<g>
	<g>
		<path id="XMLID_79_" fill="#CDCCCC" d="M94.4,188.6c-15.1,0-30.2-3.7-43.9-11C28.7,166,12.6,146.7,5.1,123.2
			c-1.1-3.6-2.1-7.3-2.8-11c-0.2-1.1,0.5-2.1,1.6-2.3c1.1-0.2,2.1,0.5,2.3,1.6c0.7,3.5,1.6,7.1,2.7,10.5c7.2,22.5,22.6,41,43.4,52.1
			c20.8,11.1,44.7,13.5,67.3,6.9c0.7-0.2,1.3-0.4,2-0.6c1.1-0.3,2.2,0.2,2.5,1.3c0.3,1.1-0.2,2.2-1.3,2.5c-0.7,0.2-1.4,0.4-2.1,0.6
			C112.1,187.3,103.2,188.6,94.4,188.6z"/>
	</g>
</g>
<path fill="#D1D2D2" d="M144.3,100.7l0.2-0.3l22.2,22.2c1.1-2.8,2-5.6,2.8-8.5l-25.2-25L45.5,89l-0.1,0.1l41.5,41.5l56.6-0.4
	L144.3,100.7z"/>
<g>
	<path fill="#E7E7E7" d="M86.9,130.7L45.4,89.1l0.1-0.1l98-0.9l0.8-29.8l0.2,0l26.8,26.8c-4.8-38-37.1-67.3-76.4-67.3
		c-42.5,0-77,34.5-77,77c0,39.3,29.4,71.6,67.3,76.4l-40.1-39.9L86.9,130.7z"/>
</g>
<g>
	<g>
		<g>
			<g>
				<rect id="XMLID_43_" x="46.2" y="59.3" fill="#E92629" width="97.1" height="28.8"/>
				<path fill="#010101" d="M144.4,89.1H45.2V58.3h99.1V89.1z M47.2,87.1h95.1V60.3H47.2V87.1z"/>
			</g>
		</g>
		<g>
			<rect id="XMLID_40_" x="54.7" y="77.1" fill="#010101" width="25.9" height="2"/>
		</g>
		<g>
			<rect id="XMLID_39_" x="54.7" y="68.4" fill="#010101" width="25.9" height="2"/>
		</g>
		<g>
			<g>
				<path id="XMLID_38_" fill="#010101" d="M89.7,71.1c-0.5,0-0.9-0.2-1.2-0.5c-0.3-0.3-0.5-0.8-0.5-1.2s0.2-0.9,0.5-1.2
					c0.7-0.6,1.8-0.6,2.5,0c0.3,0.3,0.5,0.8,0.5,1.2s-0.2,0.9-0.5,1.2C90.6,70.9,90.2,71.1,89.7,71.1z"/>
			</g>
			<g>
				<path fill="#010101" d="M125.1,69.4c0-1,0.8-1.8,1.8-1.8l0,0c1,0,1.8,0.8,1.8,1.8l0,0c0,1-0.8,1.8-1.8,1.8l0,0
					C125.9,71.1,125.1,70.3,125.1,69.4z M118.9,69.4c0-1,0.8-1.8,1.8-1.8l0,0c1,0,1.8,0.8,1.8,1.8l0,0c0,1-0.8,1.8-1.8,1.8l0,0
					C119.7,71.1,118.9,70.3,118.9,69.4z M112.7,69.4c0-1,0.8-1.8,1.8-1.8l0,0c1,0,1.8,0.8,1.8,1.8l0,0c0,1-0.8,1.8-1.8,1.8l0,0
					C113.5,71.1,112.7,70.3,112.7,69.4z M106.5,69.4c0-1,0.8-1.8,1.8-1.8l0,0c1,0,1.8,0.8,1.8,1.8l0,0c0,1-0.8,1.8-1.8,1.8l0,0
					C107.3,71.1,106.5,70.3,106.5,69.4z M100.3,69.4c0-1,0.8-1.8,1.8-1.8l0,0c1,0,1.8,0.8,1.8,1.8l0,0c0,1-0.8,1.8-1.8,1.8l0,0
					C101.1,71.1,100.3,70.3,100.3,69.4z M94.1,69.4c0-1,0.8-1.8,1.8-1.8l0,0c1,0,1.8,0.8,1.8,1.8l0,0c0,1-0.8,1.8-1.8,1.8l0,0
					C94.9,71.1,94.1,70.3,94.1,69.4z"/>
			</g>
			<g>
				<path id="XMLID_31_" fill="#010101" d="M133.1,71.1c-0.5,0-0.9-0.2-1.2-0.5c-0.3-0.3-0.5-0.8-0.5-1.2s0.2-0.9,0.5-1.2
					c0.6-0.6,1.8-0.6,2.5,0c0.3,0.3,0.5,0.8,0.5,1.2s-0.2,0.9-0.5,1.2C134,70.9,133.5,71.1,133.1,71.1z"/>
			</g>
		</g>
		<g>
			<g>
				<path id="XMLID_30_" fill="#010101" d="M89.7,79.8c-0.5,0-0.9-0.2-1.2-0.5c-0.3-0.3-0.5-0.8-0.5-1.2s0.2-0.9,0.5-1.2
					c0.7-0.6,1.8-0.6,2.5,0c0.3,0.3,0.5,0.8,0.5,1.2s-0.2,0.9-0.5,1.2C90.6,79.6,90.2,79.8,89.7,79.8z"/>
			</g>
			<g>
				<path fill="#010101" d="M125.1,78.1c0-1,0.8-1.8,1.8-1.8l0,0c1,0,1.8,0.8,1.8,1.8l0,0c0,1-0.8,1.8-1.8,1.8l0,0
					C125.9,79.8,125.1,79,125.1,78.1z M118.9,78.1c0-1,0.8-1.8,1.8-1.8l0,0c1,0,1.8,0.8,1.8,1.8l0,0c0,1-0.8,1.8-1.8,1.8l0,0
					C119.7,79.8,118.9,79,118.9,78.1z M112.7,78.1c0-1,0.8-1.8,1.8-1.8l0,0c1,0,1.8,0.8,1.8,1.8l0,0c0,1-0.8,1.8-1.8,1.8l0,0
					C113.5,79.8,112.7,79,112.7,78.1z M106.5,78.1c0-1,0.8-1.8,1.8-1.8l0,0c1,0,1.8,0.8,1.8,1.8l0,0c0,1-0.8,1.8-1.8,1.8l0,0
					C107.3,79.8,106.5,79,106.5,78.1z M100.3,78.1c0-1,0.8-1.8,1.8-1.8l0,0c1,0,1.8,0.8,1.8,1.8l0,0c0,1-0.8,1.8-1.8,1.8l0,0
					C101.1,79.8,100.3,79,100.3,78.1z M94.1,78.1c0-1,0.8-1.8,1.8-1.8l0,0c1,0,1.8,0.8,1.8,1.8l0,0c0,1-0.8,1.8-1.8,1.8l0,0
					C94.9,79.8,94.1,79,94.1,78.1z"/>
			</g>
			<g>
				<path id="XMLID_23_" fill="#010101" d="M133.1,79.8c-0.5,0-0.9-0.2-1.2-0.5c-0.3-0.3-0.5-0.8-0.5-1.2s0.2-0.9,0.5-1.2
					c0.6-0.6,1.8-0.6,2.5,0c0.3,0.3,0.5,0.8,0.5,1.2s-0.2,0.9-0.5,1.2C134,79.6,133.5,79.8,133.1,79.8z"/>
			</g>
		</g>
	</g>
	<g>
		<g>
			<g>
				<rect id="XMLID_22_" x="46.2" y="101.4" fill="#E92629" width="97.1" height="28.8"/>
				<path fill="#010101" d="M144.4,131.3H45.2v-30.8h99.1V131.3z M47.2,129.3h95.1v-26.8H47.2V129.3z"/>
			</g>
		</g>
		<g>
			<rect id="XMLID_19_" x="54.7" y="119.2" fill="#010101" width="25.9" height="2"/>
		</g>
		<g>
			<rect id="XMLID_18_" x="54.7" y="110.5" fill="#010101" width="25.9" height="2"/>
		</g>
		<g>
			<g>
				<path id="XMLID_17_" fill="#010101" d="M89.7,113.3c-0.5,0-0.9-0.2-1.2-0.5c-0.3-0.3-0.5-0.8-0.5-1.2c0-0.5,0.2-0.9,0.5-1.2
					c0.7-0.6,1.8-0.6,2.5,0c0.3,0.3,0.5,0.8,0.5,1.2c0,0.5-0.2,0.9-0.5,1.2C90.6,113.1,90.2,113.3,89.7,113.3z"/>
			</g>
			<g>
				<path fill="#010101" d="M125.1,111.5c0-1,0.8-1.8,1.8-1.8l0,0c1,0,1.8,0.8,1.8,1.8l0,0c0,1-0.8,1.8-1.8,1.8l0,0
					C125.9,113.3,125.1,112.5,125.1,111.5z M118.9,111.5c0-1,0.8-1.8,1.8-1.8l0,0c1,0,1.8,0.8,1.8,1.8l0,0c0,1-0.8,1.8-1.8,1.8l0,0
					C119.7,113.3,118.9,112.5,118.9,111.5z M112.7,111.5c0-1,0.8-1.8,1.8-1.8l0,0c1,0,1.8,0.8,1.8,1.8l0,0c0,1-0.8,1.8-1.8,1.8l0,0
					C113.5,113.3,112.7,112.5,112.7,111.5z M106.5,111.5c0-1,0.8-1.8,1.8-1.8l0,0c1,0,1.8,0.8,1.8,1.8l0,0c0,1-0.8,1.8-1.8,1.8l0,0
					C107.3,113.3,106.5,112.5,106.5,111.5z M100.3,111.5c0-1,0.8-1.8,1.8-1.8l0,0c1,0,1.8,0.8,1.8,1.8l0,0c0,1-0.8,1.8-1.8,1.8l0,0
					C101.1,113.3,100.3,112.5,100.3,111.5z M94.1,111.5c0-1,0.8-1.8,1.8-1.8l0,0c1,0,1.8,0.8,1.8,1.8l0,0c0,1-0.8,1.8-1.8,1.8l0,0
					C94.9,113.3,94.1,112.5,94.1,111.5z"/>
			</g>
			<g>
				<path id="XMLID_10_" fill="#010101" d="M133.1,113.3c-0.5,0-0.9-0.2-1.2-0.5c-0.3-0.3-0.5-0.8-0.5-1.2c0-0.5,0.2-0.9,0.5-1.2
					c0.6-0.6,1.8-0.6,2.5,0c0.3,0.3,0.5,0.8,0.5,1.2c0,0.5-0.2,0.9-0.5,1.2C134,113.1,133.5,113.3,133.1,113.3z"/>
			</g>
		</g>
		<g>
			<g>
				<path id="XMLID_9_" fill="#010101" d="M89.7,122c-0.5,0-0.9-0.2-1.2-0.5c-0.3-0.3-0.5-0.8-0.5-1.2s0.2-0.9,0.5-1.2
					c0.7-0.7,1.8-0.7,2.5,0c0.3,0.3,0.5,0.8,0.5,1.2s-0.2,0.9-0.5,1.2C90.6,121.8,90.2,122,89.7,122z"/>
			</g>
			<g>
				<path fill="#010101" d="M125.1,120.2c0-1,0.8-1.8,1.8-1.8l0,0c1,0,1.8,0.8,1.8,1.8l0,0c0,1-0.8,1.8-1.8,1.8l0,0
					C125.9,122,125.1,121.2,125.1,120.2z M118.9,120.2c0-1,0.8-1.8,1.8-1.8l0,0c1,0,1.8,0.8,1.8,1.8l0,0c0,1-0.8,1.8-1.8,1.8l0,0
					C119.7,122,118.9,121.2,118.9,120.2z M112.7,120.2c0-1,0.8-1.8,1.8-1.8l0,0c1,0,1.8,0.8,1.8,1.8l0,0c0,1-0.8,1.8-1.8,1.8l0,0
					C113.5,122,112.7,121.2,112.7,120.2z M106.5,120.2c0-1,0.8-1.8,1.8-1.8l0,0c1,0,1.8,0.8,1.8,1.8l0,0c0,1-0.8,1.8-1.8,1.8l0,0
					C107.3,122,106.5,121.2,106.5,120.2z M100.3,120.2c0-1,0.8-1.8,1.8-1.8l0,0c1,0,1.8,0.8,1.8,1.8l0,0c0,1-0.8,1.8-1.8,1.8l0,0
					C101.1,122,100.3,121.2,100.3,120.2z M94.1,120.2c0-1,0.8-1.8,1.8-1.8l0,0c1,0,1.8,0.8,1.8,1.8l0,0c0,1-0.8,1.8-1.8,1.8l0,0
					C94.9,122,94.1,121.2,94.1,120.2z"/>
			</g>
			<g>
				<path id="XMLID_2_" fill="#010101" d="M133.1,122c-0.5,0-0.9-0.2-1.2-0.5c-0.3-0.3-0.5-0.8-0.5-1.2s0.2-0.9,0.5-1.2
					c0.7-0.7,1.8-0.7,2.5,0c0.3,0.3,0.5,0.8,0.5,1.2s-0.2,0.9-0.5,1.2C134,121.8,133.5,122,133.1,122z"/>
			</g>
		</g>
	</g>
</g>
<path fill="#DCDBDB" d="M144.3,100.7l0,30.6l11.2,11c4.6-5.9,8.4-12.5,11.2-19.6l-22.2-22.2L144.3,100.7z"/>
<path fill="#DCDBDB" d="M144.4,58.3v30.8l25.2,25c1.6-6.2,2.4-12.7,2.4-19.3c0-3.3-0.2-6.5-0.6-9.7l-26.8-26.8L144.4,58.3z"/>
<path fill="#D1D2D2" d="M144.4,131.3H45.2l40.1,39.9c3.2,0.4,6.4,0.6,9.7,0.6c19.9,0,38-7.5,51.7-19.9c3.2-2.9,6.2-6.2,8.9-9.6
	L144.4,131.3z"/>
</svg>
