<?xml version="1.0" encoding="utf-8"?>
<!-- Generator: Adobe Illustrator 17.0.0, SVG Export Plug-In . SVG Version: 6.00 Build 0)  -->
<!DOCTYPE svg PUBLIC "-//W3C//DTD SVG 1.1//EN" "http://www.w3.org/Graphics/SVG/1.1/DTD/svg11.dtd">
<svg version="1.1" id="Layer_1" xmlns="http://www.w3.org/2000/svg" xmlns:xlink="http://www.w3.org/1999/xlink" x="0px" y="0px"
	 width="250px" height="70px" viewBox="0 0 250 70" enable-background="new 0 0 250 70" xml:space="preserve">
<g>
	<defs>
		<rect id="SVGID_1_" x="10.253" y="9.058" width="185.528" height="51.472"/>
	</defs>
	<clipPath id="SVGID_2_">
		<use xlink:href="#SVGID_1_"  overflow="visible"/>
	</clipPath>
	<rect x="75.536" y="19.75" clip-path="url(#SVGID_2_)" fill="#231F20" width="3.343" height="14.977"/>
	<polygon clip-path="url(#SVGID_2_)" fill="#231F20" points="97.156,19.75 100.499,19.75 100.499,34.727 97.156,34.727 
		90.021,25.342 90.021,34.727 86.678,34.727 86.678,19.75 89.807,19.75 97.156,29.392 	"/>
	<polygon clip-path="url(#SVGID_2_)" fill="#231F20" points="118.582,19.75 118.582,22.685 111.64,22.685 111.64,25.921 
		118.239,25.921 118.239,28.856 111.64,28.856 111.64,34.727 108.297,34.727 108.297,19.75 	"/>
</g>
<g>
	<defs>
		<rect id="SVGID_3_" x="10.253" y="9.058" width="185.529" height="51.472"/>
	</defs>
	<clipPath id="SVGID_4_">
		<use xlink:href="#SVGID_3_"  overflow="visible"/>
	</clipPath>
	<g clip-path="url(#SVGID_4_)">
		<defs>
			<rect id="SVGID_5_" x="10.253" y="9.058" width="185.528" height="51.472"/>
		</defs>
		<clipPath id="SVGID_6_">
			<use xlink:href="#SVGID_5_"  overflow="visible"/>
		</clipPath>
		<path clip-path="url(#SVGID_6_)" fill="#231F20" d="M137.888,32.66c-1.515,1.478-3.378,2.217-5.593,2.217
			c-2.214,0-4.078-0.739-5.592-2.217c-1.515-1.479-2.271-3.318-2.271-5.518c0-2.199,0.756-4.039,2.271-5.517
			c1.514-1.478,3.378-2.217,5.592-2.217c2.215,0,4.078,0.739,5.593,2.217c1.514,1.478,2.271,3.318,2.271,5.517
			C140.159,29.342,139.402,31.181,137.888,32.66 M136.752,27.153c0-1.335-0.429-2.474-1.286-3.418
			c-0.857-0.942-1.91-1.413-3.16-1.413s-2.303,0.471-3.16,1.413c-0.858,0.944-1.286,2.083-1.286,3.418
			c0,1.336,0.428,2.471,1.286,3.407c0.857,0.936,1.91,1.403,3.16,1.403s2.303-0.467,3.16-1.403
			C136.323,29.624,136.752,28.489,136.752,27.153"/>
		<path clip-path="url(#SVGID_6_)" fill="#231F20" d="M150.39,22.739c-0.321,0.264-0.482,0.614-0.482,1.05
			c0,0.436,0.196,0.782,0.589,1.039c0.393,0.257,1.3,0.561,2.721,0.911c1.422,0.35,2.525,0.875,3.31,1.574
			c0.786,0.701,1.179,1.722,1.179,3.064c0,1.343-0.503,2.432-1.51,3.268c-1.008,0.836-2.333,1.254-3.975,1.254
			c-2.371,0-4.507-0.879-6.407-2.636l1.993-2.443c1.614,1.414,3.107,2.122,4.478,2.122c0.614,0,1.096-0.132,1.446-0.397
			c0.35-0.264,0.525-0.621,0.525-1.071s-0.185-0.807-0.556-1.071c-0.373-0.264-1.108-0.532-2.208-0.804
			c-1.743-0.414-3.017-0.953-3.824-1.617c-0.808-0.665-1.211-1.707-1.211-3.129c0-1.421,0.51-2.518,1.532-3.289
			c1.021-0.771,2.296-1.157,3.825-1.157c1,0,2,0.172,3,0.514c0.999,0.344,1.871,0.829,2.614,1.457l-1.693,2.443
			c-1.3-0.985-2.643-1.479-4.029-1.479C151.15,22.342,150.711,22.475,150.39,22.739"/>
		<polygon clip-path="url(#SVGID_6_)" fill="#231F20" points="175.491,19.75 175.491,22.728 168.034,22.728 168.034,25.814 
			174.741,25.814 174.741,28.664 168.034,28.664 168.034,31.77 175.726,31.77 175.726,34.727 164.692,34.727 164.692,19.75 		"/>
		<path clip-path="url(#SVGID_6_)" fill="#231F20" d="M189.524,31.77c1.643,0,2.986-0.65,4.028-1.95l2.143,2.207
			c-1.7,1.914-3.703,2.871-6.01,2.871s-4.207-0.728-5.699-2.185c-1.493-1.457-2.24-3.296-2.24-5.517s0.761-4.075,2.282-5.561
			c1.522-1.485,3.382-2.228,5.582-2.228c2.456,0,4.514,0.936,6.171,2.807l-2.079,2.357c-1.056-1.314-2.371-1.972-3.942-1.972
			c-1.257,0-2.332,0.411-3.225,1.233c-0.893,0.821-1.339,1.928-1.339,3.321c0,1.392,0.421,2.51,1.265,3.353
			C187.303,31.349,188.324,31.77,189.524,31.77"/>
		<path clip-path="url(#SVGID_6_)" fill="#231F20" d="M80.843,45.901h2.079v3.283c-0.918,1.024-2.189,1.536-3.813,1.536
			c-1.359,0-2.501-0.45-3.422-1.35c-0.923-0.9-1.384-2.037-1.384-3.409c0-1.373,0.47-2.518,1.41-3.436
			c0.94-0.918,2.074-1.377,3.402-1.377c1.329,0,2.483,0.437,3.462,1.311l-1.072,1.549c-0.415-0.361-0.796-0.611-1.145-0.748
			c-0.349-0.137-0.726-0.205-1.132-0.205c-0.786,0-1.448,0.267-1.986,0.801c-0.539,0.534-0.808,1.238-0.808,2.111
			c0,0.874,0.258,1.574,0.775,2.099c0.516,0.524,1.132,0.787,1.847,0.787c0.715,0,1.31-0.136,1.787-0.41V45.901z"/>
		<polygon clip-path="url(#SVGID_6_)" fill="#231F20" points="87.052,50.614 87.052,41.36 89.117,41.36 89.117,48.774 
			93.062,48.774 93.062,50.614 		"/>
		<path clip-path="url(#SVGID_6_)" fill="#231F20" d="M103.733,49.337c-0.935,0.913-2.087,1.37-3.455,1.37s-2.52-0.457-3.455-1.37
			c-0.936-0.914-1.403-2.05-1.403-3.41c0-1.359,0.467-2.495,1.403-3.409c0.935-0.913,2.087-1.37,3.455-1.37s2.52,0.457,3.455,1.37
			c0.936,0.914,1.404,2.05,1.404,3.409C105.137,47.287,104.669,48.423,103.733,49.337 M103.032,45.934
			c0-0.825-0.265-1.529-0.794-2.112c-0.53-0.582-1.181-0.874-1.953-0.874c-0.773,0-1.423,0.292-1.953,0.874
			c-0.53,0.583-0.794,1.287-0.794,2.112c0,0.825,0.264,1.527,0.794,2.104c0.53,0.579,1.18,0.868,1.953,0.868
			c0.772,0,1.423-0.289,1.953-0.868C102.767,47.461,103.032,46.759,103.032,45.934"/>
		<path clip-path="url(#SVGID_6_)" fill="#231F20" d="M112.339,50.614h-4.051V41.36h3.601c0.627,0,1.167,0.075,1.622,0.225
			c0.454,0.151,0.796,0.353,1.025,0.609c0.415,0.477,0.623,1.015,0.623,1.615c0,0.725-0.234,1.263-0.702,1.616
			c-0.159,0.124-0.269,0.201-0.331,0.231c-0.062,0.031-0.172,0.082-0.331,0.152c0.574,0.125,1.031,0.383,1.371,0.775
			c0.339,0.393,0.509,0.88,0.509,1.463c0,0.644-0.22,1.214-0.662,1.708C114.501,50.328,113.61,50.614,112.339,50.614
			 M110.353,45.107h0.98c0.574,0,1-0.061,1.277-0.186c0.279-0.123,0.418-0.39,0.418-0.8s-0.128-0.682-0.384-0.814
			c-0.256-0.133-0.689-0.2-1.298-0.2h-0.993V45.107z M110.353,48.867h1.417c0.591,0,1.035-0.073,1.33-0.219
			c0.296-0.145,0.443-0.432,0.443-0.86c0-0.428-0.156-0.71-0.469-0.848c-0.314-0.136-0.815-0.205-1.503-0.205h-1.218V48.867z"/>
		<path clip-path="url(#SVGID_6_)" fill="#231F20" d="M125.896,50.614l-0.861-1.999h-3.879l-0.861,1.999h-2.197l3.997-9.254h2
			l3.998,9.254H125.896z M123.102,44.114l-1.165,2.688h2.317L123.102,44.114z"/>
		<polygon clip-path="url(#SVGID_6_)" fill="#231F20" points="131.178,50.614 131.178,41.36 133.243,41.36 133.243,48.774 
			137.188,48.774 137.188,50.614 		"/>
		<path clip-path="url(#SVGID_6_)" fill="#010101" d="M36.377,45.748c-0.501,0-1.006-0.035-1.51-0.107
			c-5.774-0.822-9.804-6.187-8.983-11.96c0.397-2.797,1.86-5.271,4.119-6.968c2.26-1.697,5.044-2.412,7.841-2.014
			c0.81,0.116,1.374,0.866,1.258,1.677c-0.115,0.81-0.863,1.375-1.676,1.258c-2.012-0.287-4.016,0.228-5.643,1.449
			c-1.626,1.221-2.679,3.002-2.965,5.015c-0.59,4.155,2.31,8.017,6.466,8.608c2.012,0.286,4.016-0.229,5.642-1.45
			c1.626-1.222,2.679-3.003,2.965-5.015c0.229-1.607-0.051-3.211-0.811-4.639c-0.385-0.723-0.11-1.62,0.612-2.004
			c0.722-0.385,1.62-0.111,2.004,0.612c1.058,1.986,1.448,4.216,1.129,6.448c-0.397,2.796-1.86,5.271-4.119,6.968
			C40.854,45.017,38.651,45.748,36.377,45.748"/>
		<path clip-path="url(#SVGID_6_)" fill="#010101" d="M48.053,44.564c-0.244,0-0.49-0.072-0.705-0.222
			c-0.56-0.39-0.697-1.16-0.307-1.719c2.383-3.42,2.993-7.807,1.631-11.736c-2.353-6.794-9.794-10.407-16.587-8.053
			c-2.314,0.801-4.344,2.228-5.874,4.124c-0.428,0.53-1.206,0.614-1.736,0.186c-0.531-0.428-0.614-1.205-0.186-1.736
			c1.819-2.258,4.236-3.954,6.988-4.908c8.079-2.799,16.93,1.498,19.729,9.578c1.62,4.674,0.895,9.891-1.939,13.957
			C48.827,44.379,48.443,44.564,48.053,44.564"/>
		<path clip-path="url(#SVGID_6_)" fill="#010101" d="M36.324,50.176c-2.879,0-5.698-0.831-8.166-2.44
			c-3.361-2.189-5.666-5.556-6.494-9.48c-0.428-2.026-0.436-4.075-0.026-6.09c0.082-0.401,0.472-0.658,0.874-0.578
			c0.401,0.082,0.66,0.473,0.578,0.874c-0.37,1.815-0.362,3.661,0.024,5.488c0.745,3.537,2.824,6.571,5.852,8.545
			c3.028,1.973,6.644,2.65,10.18,1.904c1.228-0.26,2.407-0.683,3.503-1.259c0.363-0.19,0.811-0.05,1.001,0.311
			c0.19,0.362,0.051,0.81-0.311,1c-1.218,0.64-2.525,1.11-3.887,1.397C38.411,50.067,37.363,50.176,36.324,50.176"/>
		<path clip-path="url(#SVGID_6_)" fill="#ED2224" d="M36.311,55.604c-3.918,0-7.756-1.132-11.116-3.321
			c-4.574-2.981-7.713-7.564-8.84-12.907c-1.127-5.341-0.107-10.803,2.874-15.377c2.981-4.574,7.564-7.714,12.907-8.841
			c6.652-1.405,13.547,0.585,18.443,5.321c0.393,0.379,0.403,1.004,0.024,1.396c-0.38,0.392-1.006,0.403-1.398,0.024
			c-4.423-4.279-10.651-6.075-16.661-4.807c-4.826,1.017-8.967,3.854-11.66,7.986c-2.692,4.132-3.614,9.065-2.595,13.89
			c1.018,4.826,3.854,8.967,7.985,11.659c4.132,2.693,9.063,3.615,13.891,2.596c8.494-1.79,14.52-9.094,14.654-17.76
			c0.008-0.541,0.448-0.973,0.987-0.973c0.005,0,0.011,0,0.016,0c0.545,0.008,0.981,0.458,0.972,1.003
			c-0.147,9.595-6.819,17.681-16.221,19.664C39.154,55.456,37.727,55.604,36.311,55.604"/>
		<path clip-path="url(#SVGID_6_)" fill="#010101" d="M48.529,58.077c-0.516,0-1.018-0.271-1.291-0.752
			c-0.403-0.712-0.153-1.616,0.559-2.02c9.511-5.387,13.963-16.857,10.587-27.271c-3.936-12.142-17.017-18.817-29.16-14.881
			c-9.338,3.029-15.77,11.652-16.008,21.458c-0.019,0.819-0.705,1.478-1.517,1.446c-0.819-0.02-1.466-0.7-1.446-1.517
			c0.268-11.063,7.524-20.791,18.057-24.206c13.696-4.441,28.453,3.089,32.893,16.786c3.809,11.748-1.214,24.686-11.944,30.764
			C49.028,58.015,48.777,58.077,48.529,58.077"/>
		<path clip-path="url(#SVGID_6_)" fill="#010101" d="M36.255,60.53c-4.098,0-8.16-1.002-11.875-2.974
			c-5.895-3.131-10.255-8.358-12.278-14.718c-0.308-0.97-0.562-1.97-0.753-2.973c-0.077-0.402,0.186-0.79,0.588-0.867
			c0.403-0.073,0.79,0.187,0.867,0.589c0.181,0.945,0.419,1.888,0.71,2.802c1.905,5.989,6.01,10.911,11.561,13.858
			c5.542,2.942,11.905,3.592,17.918,1.829c0.175-0.051,0.351-0.105,0.525-0.161c0.389-0.125,0.806,0.089,0.932,0.479
			c0.125,0.389-0.09,0.806-0.479,0.931c-0.186,0.06-0.374,0.117-0.561,0.172C41.055,60.188,38.649,60.53,36.255,60.53"/>
	</g>
</g>
</svg>
