<svg width="365" height="327" viewBox="0 0 365 327" xmlns="http://www.w3.org/2000/svg"><title>Network Icon</title><g id="Page-1" fill="none" fill-rule="evenodd"><g id="Network-Icon"><g id="Servers"><g id="Server-3"><path d="M26.063 187.82v78.875h314.89V227.25v-39.43H26.063zm279.927 50.166c-6.94 0-12.574-5.614-12.574-12.545 0-6.923 5.634-12.537 12.574-12.537 6.946 0 12.573 5.614 12.573 12.538 0 6.932-5.627 12.546-12.573 12.546zm-37.122 0c-6.94 0-12.574-5.614-12.574-12.545 0-6.923 5.635-12.537 12.574-12.537 6.946 0 12.573 5.614 12.573 12.538.003 6.932-5.626 12.546-12.572 12.546zm-35.735 0c-6.94 0-12.574-5.614-12.574-12.545 0-6.923 5.633-12.537 12.573-12.537 6.946 0 12.573 5.614 12.573 12.538 0 6.932-5.627 12.546-12.573 12.546zm-35.735 0c-6.94 0-12.574-5.614-12.574-12.545 0-6.923 5.634-12.537 12.574-12.537 6.946 0 12.573 5.614 12.573 12.538.002 6.932-5.626 12.546-12.572 12.546zm-36.996 0c-6.94 0-12.574-5.614-12.574-12.545 0-6.923 5.634-12.537 12.574-12.537 6.946 0 12.573 5.614 12.573 12.538 0 6.932-5.627 12.546-12.573 12.546z" id="Shape" fill="#333"/><path d="M58.426 227.074h59.56" id="Line" stroke="#FFF" stroke-width="15.84" stroke-linecap="square"/></g><g id="Server-2"><path d="M26.063 94.085v78.876h314.89v-39.445-39.43H26.063zm279.927 50.167c-6.94 0-12.574-5.614-12.574-12.545 0-6.924 5.634-12.538 12.574-12.538 6.946 0 12.573 5.613 12.573 12.537 0 6.93-5.627 12.545-12.573 12.545zm-37.122 0c-6.94 0-12.574-5.614-12.574-12.545 0-6.924 5.635-12.538 12.574-12.538 6.946 0 12.573 5.613 12.573 12.537.003 6.93-5.626 12.545-12.572 12.545zm-35.735 0c-6.94 0-12.574-5.614-12.574-12.545 0-6.924 5.633-12.538 12.573-12.538 6.946 0 12.573 5.613 12.573 12.537 0 6.93-5.627 12.545-12.573 12.545zm-35.735 0c-6.94 0-12.574-5.614-12.574-12.545 0-6.924 5.634-12.538 12.574-12.538 6.946 0 12.573 5.613 12.573 12.537.002 6.93-5.626 12.545-12.572 12.545zm-36.996 0c-6.94 0-12.574-5.614-12.574-12.545 0-6.924 5.634-12.538 12.574-12.538 6.946 0 12.573 5.613 12.573 12.537 0 6.93-5.627 12.545-12.573 12.545z" id="Shape" fill="#333"/><path d="M58.426 133.34h59.56" id="Line" stroke="#FFF" stroke-width="15.84" stroke-linecap="square"/></g><g id="Server-1"><path d="M26.063.35V79.228h314.89V39.78.35H26.063zM305.99 50.52c-6.94 0-12.574-5.614-12.574-12.545 0-6.924 5.634-12.538 12.574-12.538 6.946 0 12.573 5.614 12.573 12.538 0 6.93-5.627 12.545-12.573 12.545zm-37.122 0c-6.94 0-12.574-5.614-12.574-12.545 0-6.924 5.635-12.538 12.574-12.538 6.946 0 12.573 5.614 12.573 12.538.003 6.93-5.626 12.545-12.572 12.545zm-35.735 0c-6.94 0-12.574-5.614-12.574-12.545 0-6.924 5.633-12.538 12.573-12.538 6.946 0 12.573 5.614 12.573 12.538 0 6.93-5.627 12.545-12.573 12.545zm-35.735 0c-6.94 0-12.574-5.614-12.574-12.545 0-6.924 5.634-12.538 12.574-12.538 6.946 0 12.573 5.614 12.573 12.538.002 6.93-5.626 12.545-12.572 12.545zm-36.996 0c-6.94 0-12.574-5.614-12.574-12.545 0-6.924 5.634-12.538 12.574-12.538 6.946 0 12.573 5.614 12.573 12.538 0 6.93-5.627 12.545-12.573 12.545z" id="Shape" fill="#333"/><path d="M58.426 39.606h59.56" id="Line" stroke="#FFF" stroke-width="15.84" stroke-linecap="square"/></g></g><g id="Network" fill="#CCC"><g id="Group"><path id="Rectangle-path" d="M116.216 296.356H249.8v30.29H116.217z"/><path id="Rectangle-path" d="M173.958 265.048h18.086v45.435h-18.086z"/></g><g id="Group"><path id="Rectangle-path" d="M.288 306.07h107.124v9.88H.288zM257.596 306.07h107.117v9.88H257.596z"/></g></g></g></g></svg>