<?xml version="1.0" encoding="UTF-8" standalone="no"?>
<svg width="510px" height="510px" viewBox="0 0 510 510" version="1.1" xmlns="http://www.w3.org/2000/svg" xmlns:xlink="http://www.w3.org/1999/xlink" xmlns:sketch="http://www.bohemiancoding.com/sketch/ns">
    <!-- Generator: Sketch 3.3.3 (12081) - http://www.bohemiancoding.com/sketch -->
    <title>1443811619_globe-safety-shield</title>
    <desc>Created with Sketch.</desc>
    <defs></defs>
    <g id="Page-1" stroke="none" stroke-width="1" fill="none" fill-rule="evenodd" sketch:type="MSPage">
        <g id="1443811619_globe-safety-shield" sketch:type="MSLayerGroup" transform="translate(5.000000, 5.000000)">
            <g id="globe-safety-shield" sketch:type="MSShapeGroup">
                <g id="globe-safety-shield_1_">
                    <circle id="Oval" stroke="#333333" stroke-width="10" cx="250" cy="250" r="250"></circle>
                    <g id="_x31_" transform="translate(90.000000, 67.000000)">
                        <path d="M151.738802,305.432875 C128.968831,288.544394 110.049655,265.513992 98.0280697,240.557796 C110.794854,234.546581 124.323637,230.760942 138.681619,228.770394 C138.622819,225.426033 138.609619,222.26394 138.609619,219.291308 C123.079238,221.406565 108.001257,225.686244 94.0560747,231.769406 C86.3244844,212.896373 81.3048907,191.400852 80.4420918,171.226767 L80.6052915,167.583825 L140.977216,167.485496 L157.640395,167.557444 L157.601995,192.481264 L167.031583,188.882689 L167.135983,167.597015 L223.184313,167.473505 L233.086701,163.697459 L243.008288,167.486695 L244.324686,167.585024 C244.324686,167.718127 244.310286,167.841637 244.310286,167.978337 L253.575475,171.514557 C253.627075,170.16794 253.725475,168.808132 253.751875,167.4807 L308.647006,167.37038 C309.291405,167.731317 310.184204,167.514275 310.977403,167.592219 C310.646203,175.99449 309.578205,184.210897 307.911407,192.242638 L316.608996,195.554622 C324.922585,155.911539 317.741794,110.974317 297.35142,77.9180286 C271.010253,33.1786624 221.667515,3.1585596 171.915577,0.452133719 C105.93606,-4.59618394 42.5437392,33.0227761 14.6437742,93.6649425 C-5.41780068,134.400429 -4.65340163,191.812152 15.626573,232.005634 C41.1961409,287.166599 100.926066,324.775966 161.245191,322.935308 C157.222796,316.559559 154.125599,310.613096 151.838402,305.655912 C151.797602,305.582766 151.772402,305.504822 151.738802,305.432875 L151.738802,305.432875 Z M311.029003,158.08915 L253.802275,158.206665 C252.969476,131.614861 247.071483,107.781046 237.305895,84.8717564 C249.76668,78.2094161 261.427065,69.5769128 272.006252,59.2524436 C296.875021,86.6080899 309.883004,120.259144 311.029003,158.08915 L311.029003,158.08915 Z M265.52146,52.2123788 C256.048672,61.8797272 244.689486,70.3023836 232.963101,76.6025881 C220.658316,51.5012975 198.321544,26.4935386 174.863973,9.88685185 C208.621131,13.4650419 239.837892,27.1926287 265.52146,52.2123788 L265.52146,52.2123788 Z M167.227183,16.3477392 C190.624754,31.7924735 212.375926,56.500451 224.687911,80.7275793 C206.960333,89.4200388 188.216357,94.7345623 167.097583,95.3688996 L167.227183,16.3477392 L167.227183,16.3477392 Z M167.057983,104.867171 C188.691556,104.088939 209.76713,98.4890237 228.673106,89.374472 C238.366694,110.443104 243.745087,133.327212 244.363086,158.156301 L167.332783,158.331374 L167.195983,158.181483 L167.053183,105.598638 L167.057983,104.867171 L167.057983,104.867171 Z M157.539595,158.284608 L80.3520919,158.297798 C80.9676911,134.203773 85.826485,112.029547 94.8276737,91.2439084 C114.235249,99.5118776 135.914422,105.015863 157.763995,105.188537 L157.539595,158.284608 L157.539595,158.284608 Z M157.601995,95.6902652 C135.307223,95.2321993 117.637245,90.550814 98.8908686,82.6497772 C111.732053,56.3433656 133.258826,31.8991956 157.959595,14.6953444 L157.601995,95.6902652 L157.601995,95.6902652 Z M148.698006,9.76334194 C124.570836,27.549968 102.823264,53.0169919 90.5040791,78.3796918 C77.6688952,71.9679687 64.6969115,62.9997103 54.8077239,52.5097619 C80.7984913,27.4264581 112.875651,12.4565774 148.698006,9.76334194 L148.698006,9.76334194 Z M9.50898062,146.590737 C10.1701798,146.07991 9.3685808,145.126605 9.88698015,144.479078 C13.968175,112.650694 25.94176,83.4196156 48.1225322,59.2644349 C59.7721176,70.4246944 72.5893016,80.0464761 86.4492842,86.9690266 C76.8468963,108.841073 71.3977031,135.33215 71.0029036,158.258227 L9.31818086,158.35056 L9.09618114,158.128721 L9.50898062,146.590737 L9.50898062,146.590737 Z M47.7289327,263.477878 C23.6497629,236.564709 10.5673793,204.224298 9.04458121,167.620998 L65.91611,167.520271 L71.1769034,167.68575 C71.5801029,192.085553 76.9572961,214.822168 85.7700851,235.97354 C71.6449028,243.134716 59.3917181,252.94596 47.7289327,263.477878 L47.7289327,263.477878 Z M54.4153244,270.510748 C64.6273116,259.45721 77.3088957,251.40988 89.3988805,244.604844 C101.925665,269.924375 122.12644,295.361421 146.310009,313.213999 C110.954454,310.216186 79.450893,294.725885 54.4153244,270.510748 L54.4153244,270.510748 Z" id="Shape" fill="#333333"></path>
                        <g id="Group" transform="translate(153.000000, 179.000000)">
                            <path d="M160.655172,30.7543077 L160.681604,30.7543077 L80.3870597,0.171416667 L0.0720895522,30.7543077 C-0.0228283582,50.6554231 -0.788179104,93.4088974 11.9572537,120.918276 C23.8628433,146.633173 45.889806,173.434109 80.3858582,185.869609 C114.842261,173.434109 136.875231,146.634372 148.784425,120.918276 C161.527455,93.4088974 160.746485,50.6554231 160.655172,30.7543077 L160.655172,30.7543077 Z M143.863112,43.0843205 C143.060515,65.4703782 142.310784,94.8917115 133.569925,113.777513 C123.251507,136.059282 105.300007,157.741692 80.3858582,168.277224 C55.4128358,157.741692 37.4673433,136.059282 27.1681493,113.777513 C18.4140746,94.8917115 17.6895746,65.4703782 16.8557388,43.0843205 L80.5672836,18.6124936 L144.274022,43.0843205 L143.863112,43.0843205 L143.863112,43.0843205 Z" id="Shape" fill="#333333"></path>
                            <path d="M37.9755746,109.323077 C38.6736418,110.825071 39.449806,112.321071 40.245194,113.802686 L124.607993,49.8091282 L80.6081343,32.8604551 L29.4509851,52.5781667 C30.1935075,68.760859 30.6500746,93.5263718 37.9755746,109.323077 L37.9755746,109.323077 Z" id="Shape" fill="#CCCCCC"></path>
                            <path d="M80.3858582,153.787122 C100.187657,144.935788 114.535881,127.12284 122.788933,109.323077 C128.544082,96.8360321 130.030328,78.8468718 130.774052,63.8317308 L48.1846567,126.58941 C56.3716269,137.866949 67.1009552,147.867853 80.3858582,153.787122 L80.3858582,153.787122 Z" id="Shape" fill="#CCCCCC"></path>
                        </g>
                    </g>
                </g>
            </g>
            <g id="Layer_1"></g>
        </g>
    </g>
</svg>